<?xml version="1.0" encoding="UTF-8"?>
<svg id="Layer_2" data-name="Layer 2" xmlns="http://www.w3.org/2000/svg" viewBox="0 0 194.94 63.97">
  <defs>
    <style>
      .cls-1 {
        fill: #d3edec;
      }

      .cls-2 {
        fill: #9dccdb;
      }

      .cls-3, .cls-4, .cls-5 {
        fill: #1f5c7f;
      }

      .cls-4 {
        font-size: 15.79px;
        letter-spacing: 0em;
      }

      .cls-4, .cls-5 {
        font-family: PFDinDisplayPro-Black, 'PF DinDisplay Pro';
        font-weight: 800;
      }

      .cls-5 {
        font-size: 20.42px;
        letter-spacing: 0em;
      }
    </style>
  </defs>
  <g id="Layer_1-2" data-name="Layer 1">
    <g>
      <g id="illustration">
        <g id="stethoscope">
          <g>
            <path class="cls-1" d="M16.53,3.44c0,1.9-1.54,3.44-3.44,3.44s-3.44-1.54-3.44-3.44,1.54-3.44,3.44-3.44,3.44,1.54,3.44,3.44Z"/>
            <path class="cls-1" d="M21.12,3.44c0,1.9,1.54,3.44,3.44,3.44s3.44-1.54,3.44-3.44-1.54-3.44-3.44-3.44-3.44,1.54-3.44,3.44Z"/>
          </g>
          <path class="cls-1" d="M186.16,43.89c-4.84,0-8.77-3.94-8.77-8.78s3.94-8.77,8.77-8.77,8.78,3.94,8.78,8.77-3.94,8.78-8.78,8.78Z"/>
          <path class="cls-2" d="M186.16,29.89c-2.88,0-5.22,2.34-5.22,5.22s2.34,5.22,5.22,5.22,5.22-2.34,5.22-5.22-2.34-5.22-5.22-5.22Z"/>
          <path class="cls-1" d="M21.12,26.01h-4.59c-1.67,0-3.44,1.2-3.44,3.44,0,.07.26,7.46,4.36,7.46h2.75c4.11,0,4.36-7.39,4.36-7.46,0-2.24-1.77-3.44-3.44-3.44Z"/>
          <g>
            <path class="cls-1" d="M16.34,33.04C3.42,33.04,0,18.35,0,10.58,0,4.47,4.81,1.38,14.3,1.38v4.13c-7.13,0-10.17,1.52-10.17,5.07,0,6.34,2.55,18.33,12.21,18.33v4.13Z"/>
            <path class="cls-1" d="M21.32,33.04v-4.13c9.66,0,12.21-11.99,12.21-18.33,0-3.56-3.04-5.07-10.17-5.07V1.38c9.49,0,14.31,3.1,14.31,9.21,0,7.77-3.42,22.46-16.34,22.46Z"/>
          </g>
          <path class="cls-1" d="M26.63,55.08c-5.32,0-9.64-4.32-9.64-9.64v-12.39h4.13v12.39c0,3.04,2.47,5.51,5.51,5.51s5.51-2.47,5.51-5.51v-6.89c0-3.04,2.47-5.51,5.51-5.51h142.49v4.13H37.65c-.76,0-1.38.62-1.38,1.38v6.89c0,5.31-4.32,9.64-9.64,9.64Z"/>
        </g>
      </g>
      <g>
        <g id="MAN_children" data-name="MAN children">
          <path class="cls-3" d="M163.22,58.05c-.79-1.58-2.51-2.82-4.84-3.51l-.54-.16-.39.41c-1.12,1.19-2.62,1.84-4.23,1.84s-3.11-.65-4.23-1.84l-.39-.41-.54.16c-2.33.69-4.05,1.94-4.83,3.51-.99,1.97-1.02,3.23-1.02,3.37,0,2.11,5.99,2.55,11.01,2.55s11.01-.44,11.01-2.55c0-.14-.03-1.4-1.01-3.37ZM159.44,61.78c.04-.53.16-.81.16-.82.11-.23.02-.5-.21-.61-.23-.11-.5-.02-.62.21-.03.05-.22.51-.26,1.34-1.41.14-3.18.24-5.29.24s-3.88-.1-5.29-.24c-.04-.83-.24-1.29-.27-1.34-.11-.22-.38-.31-.61-.21-.22.11-.32.38-.21.61,0,0,.12.29.16.82-1.52-.2-2.51-.45-2.93-.65.06-.4.25-1.19.79-2.26.3-.6,1.11-1.67,3.21-2.41,1.42,1.29,3.22,2,5.14,2s3.72-.71,5.14-2c2.1.74,2.91,1.81,3.21,2.41.53,1.07.72,1.86.79,2.26-.42.2-1.41.45-2.93.65Z"/>
          <path class="cls-3" d="M148.49,52.24c.72,2.07,2.57,3.47,4.72,3.47s3.98-1.39,4.71-3.46c.63-.26,1.37-.78,1.8-1.9.24-.64.24-1.25,0-1.71-.2-.38-.54-.64-.98-.75v.02c.03-.82.02-1.24-.07-1.92-.19-1.46-1.21-2.69-2.63-3.4-.11-.22-.16-.45-.08-.65,0,0-.56.01-.94.27-.57-.17-1.18-.27-1.81-.27-2.8,0-5.14,1.74-5.46,4.05-.09.66-.1,1.08-.07,1.91-.43.11-.76.37-.95.74-.24.47-.24,1.07,0,1.71.42,1.09,1.14,1.62,1.76,1.88ZM153.21,53.88c-1.47,0-2.75-1.07-3.1-2.59-.19-.91-.48-2.35-.55-2.92h.9l.45-2.13v2.13h5.96c-.08.6-.36,2.02-.55,2.9-.35,1.53-1.63,2.61-3.1,2.61ZM158.9,49.06c.12.23.1.58-.04.96-.16.42-.38.71-.61.93.12-.62.3-1.49.39-2.12.11.06.21.12.26.23ZM147.55,49.06c.05-.09.13-.16.23-.21.09.6.26,1.45.39,2.07-.22-.22-.42-.51-.57-.91-.15-.38-.16-.73-.05-.96Z"/>
        </g>
        <path id="BABY" class="cls-3" d="M175.59,50.32c.45-.17.82-.59.97-1.13.1-.39.08-.79-.07-1.14-.17-.37-.47-.64-.83-.74-.06-.02-.13-.02-.19-.03,0-.48-.02-.85-.09-1.37-.31-2.27-2.61-3.98-5.36-3.98s-5.05,1.71-5.36,3.98c-.07.51-.08.9-.08,1.37-.05,0-.11,0-.17.03-.72.19-1.13,1.03-.9,1.88.15.56.53.97.99,1.14-1.12,1.45-1.79,3.33-1.79,5.39,0,4.56,3.29,8.26,7.34,8.26s7.34-3.7,7.34-8.26c0-2.06-.68-3.95-1.8-5.39ZM165.22,58.78c1.86-.44,7.58-2.03,10-5.27.22.69.34,1.42.34,2.2,0,.38-.03.75-.09,1.11-3.52,2.49-8.33,2.35-10.13,2.19-.04-.08-.08-.15-.12-.23ZM175.65,48.41c.06.15.07.34.02.53-.07.27-.23.44-.39.51.1-.4.15-.82.15-1.25h0c.11.04.18.15.21.21ZM166.47,46.16c.18-1.36,1.71-2.39,3.54-2.39s3.36,1.03,3.54,2.39c.08.63.09.96.04,2,0,1.97-1.6,3.58-3.57,3.58s-3.58-1.6-3.58-3.62c-.05-1.05-.06-1.35.02-1.96ZM170.03,53.57c1.7,0,3.22-.79,4.21-2.02t0,0c.21.29.4.61.57.94-1.97,3.33-8.22,5.02-9.92,5.42-.22-.69-.34-1.43-.34-2.21,0-1.57.49-3.01,1.3-4.13.99,1.21,2.5,1.99,4.19,1.99ZM164.62,48.23c0,.42.06.82.16,1.21-.15-.07-.31-.23-.38-.49-.08-.32.02-.6.22-.71ZM170.05,62.13c-1.63,0-3.09-.83-4.1-2.15.36.03.78.04,1.24.04,2.17,0,5.28-.35,7.97-1.92-.81,2.36-2.79,4.03-5.1,4.03Z"/>
        <g id="WOMAN_children" data-name="WOMAN children">
          <path class="cls-3" d="M142.72,58.05c-.79-1.58-2.5-2.82-4.84-3.51l-.54-.16-.39.41c-1.12,1.19-2.62,1.84-4.23,1.84s-3.11-.65-4.23-1.84l-.39-.41-.54.16c-2.33.69-4.05,1.94-4.84,3.51-.99,1.97-1.01,3.23-1.01,3.37,0,2.11,5.99,2.55,11.01,2.55s11.01-.44,11.01-2.55c0-.14-.03-1.4-1.02-3.37ZM138.94,61.78c.04-.53.16-.81.16-.82.11-.23.02-.5-.21-.61-.22-.11-.5-.02-.62.21-.02.05-.22.51-.26,1.34-1.41.14-3.17.24-5.29.24s-3.88-.1-5.29-.24c-.04-.83-.24-1.29-.26-1.34-.11-.22-.38-.31-.61-.21-.23.11-.32.38-.21.61,0,0,.12.29.16.82-1.52-.2-2.5-.45-2.93-.65.06-.4.25-1.19.78-2.26.3-.6,1.11-1.67,3.21-2.41,1.42,1.29,3.23,2,5.15,2s3.72-.71,5.14-2c2.1.74,2.91,1.81,3.21,2.41.54,1.07.72,1.86.79,2.26-.42.2-1.41.45-2.93.65Z"/>
          <path class="cls-3" d="M141.04,42.05c-1.32-.35-2.34.3-3.02,1-.2-.12-.42-.18-.66-.18s-.46.06-.66.18c-.08.05-.14.12-.21.19-.99-.79-2.32-1.28-3.79-1.28s-2.77.48-3.76,1.26c-.06-.05-.12-.12-.19-.17-.2-.11-.43-.18-.66-.18s-.46.06-.66.18c-.67-.7-1.7-1.35-3.02-1-3.76,1.01-.41,6.21-.37,6.14,0,0,1.09-1.87,2.31-2.32.11.19.27.37.48.49.11.07.24.11.36.14-.03.42-.03.81,0,1.41-.43.11-.76.37-.95.74-.24.47-.24,1.07,0,1.71.42,1.09,1.14,1.62,1.76,1.88.71,2.07,2.57,3.47,4.71,3.47s3.99-1.39,4.71-3.46c.63-.26,1.37-.78,1.8-1.9.24-.64.24-1.25,0-1.71-.2-.38-.54-.64-.98-.75v.02c.02-.6.02-.99-.02-1.41.14-.03.27-.07.4-.14.21-.12.37-.3.48-.49,1.23.45,2.31,2.32,2.31,2.32.04.07,3.39-5.13-.36-6.14ZM127.15,45.02l.6-1.03c.08-.13.21-.2.35-.2.07,0,.14.01.2.05.19.11.26.36.15.54l-.6,1.04c-.07.13-.21.2-.34.2-.07,0-.14-.02-.2-.06-.19-.11-.25-.35-.15-.54ZM127.1,50.03c-.15-.38-.16-.73-.04-.96.05-.09.13-.16.23-.21.09.6.26,1.45.39,2.07-.22-.22-.42-.51-.57-.9ZM135.81,51.27c-.35,1.53-1.63,2.61-3.1,2.61s-2.75-1.07-3.1-2.59c-.19-.91-.48-2.35-.55-2.92h5.95v-2.13s.46,2.13.46,2.13h.9c-.08.6-.36,2.02-.55,2.9ZM138.41,49.07c.12.23.1.58-.04.96-.16.42-.38.71-.61.93.13-.62.3-1.49.4-2.12.11.06.21.12.26.23ZM138.16,45.56c-.06.04-.13.06-.2.06-.14,0-.28-.07-.35-.2l-.6-1.04c-.11-.19-.04-.43.15-.54.06-.03.13-.05.2-.05.14,0,.27.07.35.2l.6,1.03c.11.19.05.43-.14.54Z"/>
        </g>
      </g>
      <text class="cls-4" transform="translate(40.79 52.24)"><tspan x="0" y="0">Παιδίατρος</tspan></text>
      <text class="cls-5" transform="translate(40.97 27.24)"><tspan x="0" y="0">Mάριος Δέτσης</tspan></text>
    </g>
  </g>
</svg>